<?xml version="1.0" encoding="UTF-8" standalone="no"?>
<!-- Created with Inkscape (http://www.inkscape.org/) -->

<svg
   xmlns:dc="http://purl.org/dc/elements/1.1/"
   xmlns:cc="http://creativecommons.org/ns#"
   xmlns:rdf="http://www.w3.org/1999/02/22-rdf-syntax-ns#"
   xmlns:svg="http://www.w3.org/2000/svg"
   xmlns="http://www.w3.org/2000/svg"
   xmlns:sodipodi="http://sodipodi.sourceforge.net/DTD/sodipodi-0.dtd"
   xmlns:inkscape="http://www.inkscape.org/namespaces/inkscape"
   width="107.30441mm"
   height="14.882358mm"
   viewBox="0 0 107.30441 14.882358"
   version="1.1"
   id="svg8"
   inkscape:version="0.92.3 (2405546, 2018-03-11)"
   sodipodi:docname="SlaytonNicholsLogo.svg">
  <defs
     id="defs2" />
  <sodipodi:namedview
     id="base"
     pagecolor="#ffffff"
     bordercolor="#666666"
     borderopacity="1.0"
     inkscape:pageopacity="0.0"
     inkscape:pageshadow="2"
     inkscape:zoom="0.98994949"
     inkscape:cx="152.21467"
     inkscape:cy="1.9200612"
     inkscape:document-units="mm"
     inkscape:current-layer="layer1"
     showgrid="false"
     showguides="true"
     inkscape:guide-bbox="true"
     inkscape:window-width="1920"
     inkscape:window-height="1052"
     inkscape:window-x="0"
     inkscape:window-y="0"
     inkscape:window-maximized="1"
     fit-margin-top="0"
     fit-margin-left="0"
     fit-margin-right="0"
     fit-margin-bottom="0" />
  <metadata
     id="metadata5">
    <rdf:RDF>
      <cc:Work
         rdf:about="">
        <dc:format>image/svg+xml</dc:format>
        <dc:type
           rdf:resource="http://purl.org/dc/dcmitype/StillImage" />
        <dc:title></dc:title>
      </cc:Work>
    </rdf:RDF>
  </metadata>
  <g
     inkscape:label="Layer 1"
     inkscape:groupmode="layer"
     id="layer1"
     transform="translate(-59.548451,-83.076034)">
    <g
       id="g4672">
      <path
         id="flowRoot26"
         transform="scale(0.26458333)"
         d="m 319.80859,313.99023 0.23243,56.24415 z m -62.39257,4.77539 -31.41797,47.58399 16.07422,-0.0977 -0.0488,0.0566 21.15429,-0.0996 -0.0801,0.0899 23.65429,-0.10547 -0.10351,-26.29688 -13.03125,14.60743 -0.0937,-24.97266 -16.02149,18.70508 z m 1.67968,0.2129 c 0.17859,22.95481 0.17969,24.67382 0.17969,24.67382 l 10.625,-12.20703 z m 94.34961,8.54101 v 30.39063 h 3.59375 v -30.39063 z m 167.5,0 v 4.55078 h 3.59375 v -4.55078 z m 32.98828,0 v 30.39063 h 3.61329 v -12.36328 c -10e-6,-2.13542 0.55989,-3.82162 1.67968,-5.0586 1.11979,-1.23698 2.64974,-1.85547 4.58985,-1.85547 1.61458,0 2.82552,0.51433 3.63281,1.54297 0.80729,1.02865 1.21094,2.57813 1.21094,4.64844 v 13.08594 h 3.59375 v -13.20313 c 0,-3.02083 -0.64454,-5.30599 -1.9336,-6.85547 -1.28906,-1.5625 -3.1901,-2.34375 -5.70312,-2.34375 -1.52344,0 -2.8711,0.32552 -4.04297,0.97657 -1.15886,0.65104 -2.16797,1.63411 -3.02734,2.94921 v -11.91406 z m 49.98047,0 v 30.39063 h 3.59375 v -30.39063 z m -266.75781,0.70313 c -3.1901,0 -5.69661,0.74218 -7.51953,2.22656 -1.8099,1.48437 -2.71484,3.51562 -2.71484,6.09375 -10e-6,2.22656 0.65755,3.96484 1.97265,5.21484 1.31511,1.25 3.44401,2.16797 6.38672,2.75391 l 2.40234,0.46875 c 2.00521,0.40364 3.44401,1.00911 4.31641,1.81641 0.88542,0.80729 1.32812,1.92708 1.32812,3.35937 0,1.64062 -0.61197,2.90365 -1.83593,3.78906 -1.22396,0.88542 -2.96224,1.32813 -5.21485,1.32813 -1.48437,0 -2.99479,-0.22787 -4.53125,-0.6836 -1.53645,-0.45573 -3.10547,-1.13281 -4.70703,-2.03125 v 4.0625 c 1.66667,0.61198 3.27474,1.07422 4.82422,1.38672 1.5625,0.3125 3.03386,0.46875 4.41406,0.46875 3.65886,0 6.4323,-0.72916 8.32032,-2.1875 1.90104,-1.45833 2.85156,-3.60026 2.85156,-6.42578 0,-2.36979 -0.70313,-4.25781 -2.10938,-5.66406 -1.39323,-1.41927 -3.56119,-2.40886 -6.5039,-2.96875 l -2.38282,-0.48828 c -2.16145,-0.40365 -3.63281,-0.93099 -4.41406,-1.58203 -0.76823,-0.66407 -1.15234,-1.64063 -1.15234,-2.92969 0,-1.53646 0.57943,-2.72136 1.73828,-3.55469 1.17187,-0.83333 2.83203,-1.25 4.98047,-1.25 1.23698,0 2.51953,0.17578 3.84765,0.52734 1.32813,0.35157 2.74089,0.88542 4.23829,1.60157 v -3.84766 c -1.48438,-0.49479 -2.9362,-0.86588 -4.35547,-1.11328 -1.41927,-0.2474 -2.8125,-0.37109 -4.17969,-0.37109 z M 491.17969,328.75 v 29.16016 h 3.82812 v -24.39454 l 12.92969,24.39454 H 513.25 V 328.75 h -3.82812 v 24.39453 L 496.49219,328.75 Z m -78.4961,1.07422 v 6.21094 h -2.63671 v 2.79296 h 2.63671 v 11.875 c 0,2.73438 0.52735,4.6224 1.58203,5.66407 1.05469,1.02864 2.96876,1.54297 5.74219,1.54297 h 3.69141 v -3.00782 h -3.69141 c -1.49739,0 -2.49349,-0.2539 -2.98828,-0.76172 -0.48177,-0.50781 -0.72265,-1.65364 -0.72265,-3.4375 v -11.875 h 7.40234 v -2.79296 h -7.40234 v -6.21094 z m -137.51562,0.62695 v 20.16602 l 7.67773,-8.18555 z m 97.04687,5.05664 c -1.17187,0 -2.3763,0.13021 -3.61328,0.39063 -1.23698,0.24739 -2.51302,0.625 -3.82812,1.13281 v 3.32031 c 1.09375,-0.59896 2.23307,-1.04817 3.41797,-1.34765 1.18489,-0.29948 2.40234,-0.44922 3.65234,-0.44922 1.96615,0 3.48958,0.45573 4.57031,1.36719 1.09375,0.89843 1.64063,2.17447 1.64063,3.82812 v 0.35156 h -5.03907 c -3.26822,0 -5.72916,0.625 -7.38281,1.875 -1.64062,1.25 -2.46094,3.10547 -2.46093,5.56641 0,2.10937 0.65755,3.79557 1.97265,5.05859 1.32813,1.25 3.11198,1.875 5.35156,1.875 1.77084,0 3.26823,-0.3125 4.49219,-0.9375 1.22396,-0.63802 2.2461,-1.62109 3.06641,-2.94922 v 3.32032 h 3.59375 v -12.48047 c 0,-3.33334 -0.78125,-5.82032 -2.34375,-7.46094 -1.5625,-1.64062 -3.92578,-2.46094 -7.08985,-2.46094 z m 64.70704,0 c -3.13803,0 -5.59896,1.01563 -7.38282,3.04688 -1.77083,2.03125 -2.65625,4.84375 -2.65625,8.4375 0,3.58073 0.88542,6.39323 2.65625,8.4375 1.78386,2.03125 4.24479,3.04687 7.38282,3.04687 3.12499,0 5.57942,-1.01562 7.36328,-3.04687 1.78385,-2.04427 2.67578,-4.85677 2.67578,-8.4375 0,-3.59375 -0.89193,-6.40625 -2.67578,-8.4375 -1.78386,-2.03125 -4.23829,-3.04688 -7.36328,-3.04688 z m 26.52343,0 c -1.52343,0 -2.87109,0.32552 -4.04297,0.97657 -1.15885,0.65104 -2.16797,1.63411 -3.02734,2.94921 v -3.39843 h -3.61328 v 21.875 h 3.61328 v -12.36328 c 0,-2.13542 0.5599,-3.82162 1.67969,-5.0586 1.11979,-1.23698 2.64974,-1.85547 4.58984,-1.85547 1.61458,0 2.82552,0.51433 3.63281,1.54297 0.8073,1.02865 1.21094,2.57813 1.21094,4.64844 v 13.08594 h 3.59375 v -13.20313 c 0,-3.02083 -0.64453,-5.30599 -1.93359,-6.85547 -1.28906,-1.5625 -3.19011,-2.34375 -5.70313,-2.34375 z m 78.02735,0 c -3.41146,0 -6.10026,1.02214 -8.06641,3.06641 -1.95312,2.04427 -2.92969,4.85026 -2.92969,8.41797 0,3.51562 0.97005,6.30859 2.91016,8.3789 1.9401,2.07032 4.55729,3.10547 7.85156,3.10547 1.21094,0 2.35026,-0.11719 3.41797,-0.35156 1.08073,-0.23437 2.1224,-0.58594 3.125,-1.05469 V 353.75 c -1.01562,0.5599 -2.03776,0.98307 -3.06641,1.26953 -1.01562,0.27344 -2.04427,0.41016 -3.08593,0.41016 -2.33073,0 -4.14063,-0.73568 -5.42969,-2.20703 -1.28906,-1.48438 -1.9336,-3.5612 -1.9336,-6.23047 0,-2.66927 0.64454,-4.73959 1.9336,-6.21094 1.28906,-1.48437 3.09896,-2.22656 5.42969,-2.22656 1.04166,0 2.07031,0.14323 3.08593,0.42969 1.02865,0.27343 2.05079,0.6901 3.06641,1.25 V 336.875 c -0.98958,-0.45573 -2.01172,-0.79427 -3.06641,-1.01562 -1.05468,-0.23438 -2.13541,-0.35157 -3.24218,-0.35157 z m 46.46484,0 c -3.13802,0 -5.59896,1.01563 -7.38281,3.04688 -1.77084,2.03125 -2.65625,4.84375 -2.65625,8.4375 0,3.58073 0.88541,6.39323 2.65625,8.4375 1.78385,2.03125 4.24479,3.04687 7.38281,3.04687 3.125,0 5.57943,-1.01562 7.36328,-3.04687 1.78386,-2.04427 2.67578,-4.85677 2.67578,-8.4375 0,-3.59375 -0.89192,-6.40625 -2.67578,-8.4375 -1.78385,-2.03125 -4.23828,-3.04688 -7.36328,-3.04688 z m 34.02344,0 c -2.68229,0 -4.75261,0.5599 -6.21094,1.67969 -1.45833,1.11979 -2.1875,2.70833 -2.1875,4.76562 0,1.69271 0.49479,3.02735 1.48438,4.00391 0.98958,0.96354 2.59765,1.67969 4.82421,2.14844 l 1.25,0.29297 c 2.22657,0.48177 3.66537,0.98307 4.31641,1.5039 0.66406,0.52084 0.99609,1.26954 0.99609,2.2461 0,1.05468 -0.45573,1.875 -1.36718,2.46094 -0.91146,0.57291 -2.21355,0.85937 -3.90625,0.85937 -1.26302,0 -2.53907,-0.16927 -3.82813,-0.50781 -1.28906,-0.35156 -2.59766,-0.8724 -3.92578,-1.5625 v 3.71094 c 1.40625,0.45572 2.74089,0.79427 4.00391,1.01562 1.27604,0.23437 2.5,0.35156 3.67187,0.35156 2.8125,0 5.01953,-0.59245 6.62109,-1.77734 1.61459,-1.1849 2.42188,-2.79297 2.42188,-4.82422 0,-1.78385 -0.54036,-3.17057 -1.62109,-4.16016 -1.06771,-1.0026 -2.87761,-1.77734 -5.42969,-2.32422 l -1.23047,-0.27343 c -1.92708,-0.42969 -3.20964,-0.87891 -3.84766,-1.34766 -0.63802,-0.48177 -0.95703,-1.13932 -0.95703,-1.97265 0,-1.09375 0.44271,-1.91407 1.32813,-2.46094 0.89843,-0.54688 2.23958,-0.82032 4.02343,-0.82032 1.17188,10e-6 2.30469,0.13021 3.39844,0.39063 1.09375,0.26042 2.14844,0.65104 3.16406,1.17187 v -3.39843 c -0.98958,-0.39063 -2.07031,-0.6836 -3.24218,-0.87891 -1.17188,-0.19531 -2.42188,-0.29297 -3.75,-0.29297 z m -235.46875,0.52735 8.84765,21.52343 -0.64453,1.64063 c -0.66406,1.74479 -1.26953,2.85156 -1.8164,3.32031 -0.54688,0.46875 -1.31511,0.70313 -2.30469,0.70313 h -2.10938 v 3.00781 h 2.8711 c 1.61458,0 2.90364,-0.39714 3.86718,-1.19141 0.96355,-0.79427 1.95313,-2.49349 2.96876,-5.09765 l 9.60937,-23.90625 h -3.80859 l -6.83594,17.10937 -6.83594,-17.10937 z m 134.45312,0 v 21.875 h 3.59375 v -21.875 z m -84.02343,2.51953 c 1.91406,0 3.43098,0.76172 4.55078,2.28515 1.11979,1.51042 1.67968,3.5612 1.67968,6.15235 0,2.60416 -0.55989,4.66146 -1.67968,6.17187 -1.1198,1.51042 -2.63672,2.26563 -4.55078,2.26563 -1.94011,0 -3.47006,-0.7487 -4.58985,-2.2461 -1.10677,-1.51041 -1.66015,-3.57422 -1.66015,-6.1914 -10e-6,-2.61719 0.55989,-4.67448 1.67968,-6.17188 1.11979,-1.51041 2.64323,-2.26562 4.57032,-2.26562 z m 151.01562,0 c 1.91406,0 3.43099,0.76172 4.55078,2.28515 1.11979,1.51042 1.67969,3.5612 1.67969,6.15235 0,2.60416 -0.5599,4.66146 -1.67969,6.17187 -1.11979,1.51042 -2.63672,2.26563 -4.55078,2.26563 -1.9401,0 -3.47005,-0.7487 -4.58984,-2.2461 -1.10677,-1.51041 -1.66016,-3.57422 -1.66016,-6.1914 0,-2.61719 0.5599,-4.67448 1.67969,-6.17188 1.11979,-1.51041 2.64323,-2.26562 4.57031,-2.26562 z m -299.49805,1.30469 -0.10351,26.29687 23.65429,0.10547 z m 86.04102,7.05468 h 3.57422 v 0.80078 c 0,2.34375 -0.60547,4.22526 -1.81641,5.64454 -1.19792,1.40624 -2.79297,2.10937 -4.78516,2.10937 -1.44531,0 -2.59114,-0.37109 -3.4375,-1.11328 -0.83333,-0.75521 -1.25,-1.77083 -1.25,-3.04688 10e-6,-1.60156 0.5599,-2.73437 1.67969,-3.39843 1.11979,-0.66407 3.13151,-0.9961 6.03516,-0.9961 z"
         style="font-style:normal;font-weight:normal;font-size:40px;line-height:1.25;font-family:sans-serif;letter-spacing:0px;word-spacing:0px;fill:#8baabf;fill-opacity:1;stroke:#8baabf;stroke-opacity:1"
         inkscape:connector-curvature="0" />
    </g>
  </g>
</svg>
